<svg width="711" height="697" viewBox="0 0 711 697" fill="none" xmlns="http://www.w3.org/2000/svg">
<path d="M624.1 544.033C587.239 543.114 558.67 546.798 534.71 556.927C527.797 559.688 516.737 559.691 515.816 568.441C519.502 572.125 519.963 578.112 523.189 583.175C528.724 592.383 538.394 604.818 547.149 611.268C556.824 618.634 566.504 626 576.637 632.448C594.609 643.5 614.886 649.945 632.395 660.998C642.536 667.44 652.666 675.735 662.804 682.641C667.873 686.32 671.096 692.312 677.551 694.612V693.233C674.322 689.085 673.401 683.101 670.177 678.496C665.574 673.89 660.961 669.746 656.353 665.14C642.991 647.185 626.404 631.526 608.434 618.634C593.69 608.502 561.433 594.689 555.444 577.649C555.444 577.649 554.981 577.191 554.523 576.731C564.658 575.809 576.637 572.125 586.317 569.362C601.983 565.215 616.266 566.138 632.395 561.993C639.765 560.151 647.139 557.849 654.509 555.546V551.404C646.22 543.114 640.229 532.064 631.473 524.235C607.974 503.969 582.167 484.171 555.444 467.594C541.159 458.383 522.726 452.396 507.521 444.57C501.996 441.804 492.777 440.425 489.554 435.82C481.256 425.691 476.648 412.338 470.66 400.364C457.301 375.034 444.395 346.947 432.875 320.241C424.585 302.28 419.516 284.319 409.378 267.745C361.918 189.462 310.31 142.032 231.058 95.5208C214.008 85.8522 193.734 81.7073 172.078 76.6441C160.562 76.1809 149.039 75.2625 137.521 74.7993C130.148 71.5756 122.775 62.828 116.323 58.6832C90.0637 42.1039 22.3246 6.19004 2.97244 53.6199C-9.46991 83.5495 21.4056 113.019 31.9993 128.219C39.8387 138.809 49.9716 150.78 55.5015 162.754C58.7273 170.578 59.6464 178.872 62.8722 187.159C70.248 207.415 77.1552 229.984 86.8352 248.866C91.9043 258.535 97.4316 268.664 103.883 277.414C107.57 282.477 114.019 284.783 115.404 293.07C108.955 302.28 108.491 316.096 104.802 327.607C88.215 379.642 94.6693 444.109 118.166 482.329C125.537 493.837 143.048 519.172 166.548 509.498C187.285 501.211 182.677 474.963 188.662 451.939C190.05 446.407 189.128 442.728 191.891 439.044V439.967C198.342 452.857 204.791 465.294 210.782 478.186C225.068 500.747 249.947 524.235 270.682 539.893C281.744 548.177 290.497 562.454 304.322 567.52V566.136H303.398C300.633 561.991 296.486 560.151 292.802 556.925C284.509 548.641 275.29 538.509 268.841 529.298C249.492 503.508 232.438 474.96 217.234 445.488C209.863 431.217 203.409 415.559 197.421 401.285C194.653 395.753 194.653 387.469 190.047 384.708C183.135 394.837 172.999 403.588 167.93 416.019C159.18 435.82 158.256 460.226 155.03 485.55C153.187 486.016 154.106 485.55 153.184 486.476C138.443 482.787 133.374 467.594 127.841 454.699C114.016 422.006 111.712 369.511 123.696 331.752C126.922 322.081 140.747 291.691 135.217 282.48C132.452 273.73 123.233 268.664 118.166 261.758C112.178 253.008 105.724 241.961 101.579 232.287C90.5192 206.499 84.9893 177.949 73.0104 152.161C67.4804 140.187 57.8083 127.758 49.9716 116.705C41.2185 104.274 31.5411 95.5208 24.6287 80.7863C22.3272 75.723 19.0988 67.4334 22.7854 61.907C23.7071 58.2227 25.5477 56.8437 29.237 55.9226C35.2278 50.8541 52.2784 57.3016 58.2639 60.0648C75.3145 66.9676 89.5975 73.4203 103.883 83.089C110.332 87.6943 117.245 96.4445 125.537 98.7472H135.214C149.961 101.968 166.545 99.6682 180.37 103.81C204.794 111.637 226.908 123.15 246.724 135.585C307.087 173.804 356.846 228.142 390.486 293.07C396.016 303.657 398.318 313.333 403.387 324.381C413.067 346.947 425.046 369.971 434.718 392.074C444.395 413.714 453.609 435.82 467.434 453.781C474.347 463.447 501.991 468.515 514.433 473.581C523.65 477.723 537.936 481.41 546.228 486.473C561.893 496.139 577.559 507.198 592.305 517.785C599.679 523.311 622.715 534.824 624.1 544.033Z" fill="black" fill-opacity="0.12"/>
<path d="M154.102 143.869C146.271 143.869 140.743 144.795 135.213 146.174V147.095H136.135C139.824 154.464 146.271 159.53 150.876 165.974C154.566 173.34 157.789 180.712 161.478 188.08C161.936 187.617 162.397 187.159 162.397 187.159C168.851 182.551 172.074 175.185 172.074 164.132C169.309 160.911 168.849 157.687 166.544 154.464C163.782 149.856 157.789 147.556 154.102 143.869Z" fill="black" fill-opacity="0.12"/>
<path d="M657.1 514.033C620.239 513.114 591.67 516.798 567.71 526.927C560.797 529.688 549.737 529.691 548.816 538.441C552.502 542.125 552.963 548.112 556.189 553.175C561.724 562.383 571.394 574.818 580.149 581.268C589.824 588.634 599.504 596 609.637 602.448C627.609 613.5 647.886 619.945 665.395 630.998C675.536 637.44 685.666 645.735 695.804 652.641C700.873 656.32 704.096 662.312 710.551 664.612V663.233C707.322 659.085 706.401 653.101 703.177 648.496C698.574 643.89 693.961 639.746 689.353 635.14C675.991 617.185 659.404 601.526 641.434 588.634C626.69 578.502 594.432 564.689 588.444 547.649C588.444 547.649 587.981 547.191 587.523 546.731C597.658 545.809 609.637 542.125 619.317 539.362C634.983 535.215 649.266 536.138 665.395 531.993C672.765 530.151 680.139 527.849 687.509 525.546V521.404C679.22 513.114 673.229 502.064 664.473 494.235C640.974 473.969 615.167 454.171 588.444 437.594C574.159 428.383 555.726 422.396 540.521 414.57C534.996 411.804 525.777 410.425 522.554 405.82C514.256 395.691 509.648 382.338 503.66 370.364C490.301 345.034 477.395 316.947 465.875 290.241C457.585 272.28 452.516 254.319 442.378 237.745C394.918 159.462 343.31 112.032 264.058 65.5208C247.008 55.8522 226.734 51.7073 205.078 46.6441C193.562 46.1809 182.039 45.2625 170.521 44.7993C163.148 41.5756 155.775 32.828 149.323 28.6832C123.064 12.1039 55.3246 -23.81 35.9724 23.6199C23.5301 53.5495 54.4056 83.0185 64.9993 98.2188C72.8387 108.809 82.9716 120.78 88.5015 132.754C91.7273 140.578 92.6464 148.872 95.8722 157.159C103.248 177.415 110.155 199.984 119.835 218.866C124.904 228.535 130.432 238.664 136.883 247.414C140.57 252.477 147.019 254.783 148.404 263.07C141.955 272.28 141.491 286.096 137.802 297.607C121.215 349.642 127.669 414.109 151.166 452.329C158.537 463.837 176.048 489.172 199.548 479.498C220.285 471.211 215.677 444.963 221.662 421.939C223.05 416.407 222.128 412.728 224.891 409.044V409.967C231.342 422.857 237.791 435.294 243.782 448.186C258.068 470.747 282.947 494.235 303.682 509.893C314.744 518.177 323.497 532.454 337.322 537.52V536.136H336.398C333.633 531.991 329.486 530.151 325.802 526.925C317.509 518.641 308.29 508.509 301.841 499.298C282.492 473.508 265.438 444.96 250.234 415.488C242.863 401.217 236.409 385.559 230.421 371.285C227.653 365.753 227.653 357.469 223.047 354.708C216.135 364.837 205.999 373.588 200.93 386.019C192.18 405.82 191.256 430.226 188.03 455.55C186.187 456.016 187.106 455.55 186.184 456.476C171.443 452.787 166.374 437.594 160.841 424.699C147.016 392.006 144.712 339.511 156.696 301.752C159.922 292.081 173.747 261.691 168.217 252.48C165.452 243.73 156.233 238.664 151.166 231.758C145.178 223.008 138.724 211.961 134.579 202.287C123.519 176.499 117.989 147.949 106.01 122.161C100.48 110.187 90.8083 97.7583 82.9716 86.7054C74.2185 74.2736 64.5411 65.5208 57.6287 50.7863C55.3272 45.723 52.0988 37.4334 55.7854 31.9069C56.7071 28.2227 58.5477 26.8437 62.237 25.9226C68.2278 20.8541 85.2784 27.3016 91.2639 30.0648C108.315 36.9676 122.598 43.4203 136.883 53.089C143.332 57.6943 150.245 66.4445 158.537 68.7472H168.214C182.961 71.9683 199.545 69.6683 213.37 73.8104C237.794 81.6369 259.908 93.1503 279.724 105.585C340.087 143.804 389.846 198.142 423.486 263.07C429.016 273.657 431.318 283.333 436.387 294.381C446.067 316.947 458.046 339.971 467.718 362.074C477.395 383.714 486.609 405.82 500.434 423.781C507.347 433.447 534.991 438.515 547.433 443.581C556.65 447.723 570.936 451.41 579.228 456.473C594.893 466.139 610.559 477.198 625.305 487.785C632.679 493.311 655.715 504.824 657.1 514.033Z" fill="#A93653"/>
<path d="M187.102 113.869C179.271 113.869 173.743 114.795 168.213 116.174V117.095H169.135C172.824 124.464 179.271 129.53 183.876 135.974C187.566 143.34 190.789 150.712 194.478 158.08C194.936 157.617 195.397 157.159 195.397 157.159C201.851 152.551 205.074 145.185 205.074 134.132C202.309 130.911 201.849 127.687 199.544 124.464C196.782 119.856 190.789 117.556 187.102 113.869Z" fill="#A93653"/>
</svg>
