<svg width="633" height="322" viewBox="0 0 633 322" fill="none" xmlns="http://www.w3.org/2000/svg">
<path fill-rule="evenodd" clip-rule="evenodd" d="M0 321.266L45.2819 92.0348H149.988C195.266 94.8657 217.907 117.503 217.907 157.127C217.907 225.046 164.139 264.666 116.026 261.836H65.092L53.7715 321.266H0ZM76.4092 219.388L90.5606 134.486H127.35C147.16 134.486 161.308 142.975 161.308 159.954C158.48 208.067 135.839 216.557 110.371 219.388H76.4124H76.4092ZM207.387 261.836L252.666 32.6079H306.437L295.117 92.0348H346.054C391.336 94.8657 408.315 117.503 402.657 145.806L382.847 261.836H326.247L346.057 157.127C348.885 142.975 348.885 134.486 329.078 134.486H286.627L261.159 261.836H207.387V261.836ZM379.222 321.266L424.5 92.0348H529.209C574.491 94.8657 597.132 117.503 597.132 157.127C597.132 225.046 543.361 264.666 495.251 261.836H444.31L432.99 321.266H379.222V321.266ZM455.628 219.388L469.779 134.486H506.571C526.381 134.486 540.53 142.975 540.53 159.954C537.702 208.067 515.061 216.557 489.592 219.388H455.631H455.628Z" fill="black" fill-opacity="0.12"/>
<path fill-rule="evenodd" clip-rule="evenodd" d="M35.8677 288.658L81.1496 59.4269H185.855C231.134 62.2578 253.775 84.8955 253.775 124.519C253.775 192.438 200.007 232.059 151.894 229.228H100.96L89.6392 288.658H35.8677ZM112.277 186.78L126.428 101.878H163.217C183.027 101.878 197.176 110.367 197.176 127.347C194.348 175.459 171.707 183.949 146.238 186.78H112.28H112.277ZM243.255 229.228L288.534 0H342.305L330.985 59.4269H381.922C427.204 62.2578 444.183 84.8955 438.524 113.198L418.714 229.228H362.115L381.925 124.519C384.753 110.367 384.753 101.878 364.946 101.878H322.495L297.026 229.228H243.255V229.228ZM415.089 288.658L460.368 59.4269H565.077C610.359 62.2578 633 84.8955 633 124.519C633 192.438 579.228 232.059 531.119 229.228H480.178L468.858 288.658H415.089V288.658ZM491.495 186.78L505.647 101.878H542.439C562.249 101.878 576.397 110.367 576.397 127.347C573.57 175.459 550.929 183.949 525.46 186.78H491.499H491.495Z" fill="#A93653"/>
</svg>
