<svg width="633" height="503" viewBox="0 0 633 503" fill="none" xmlns="http://www.w3.org/2000/svg">
<path d="M175.055 331.045L120.088 354.656L170.994 376.426L230.022 354.656L175.055 331.045ZM92.4147 360.559L90.5729 466.81L170.993 502.227V391.915L92.4147 360.559ZM257.694 360.559L185.018 388.231V492.263L257.694 462.749V360.559ZM344.395 30L289.05 53.6119L340.334 75.3814L399.362 53.6119L344.395 30ZM267.658 61.3681V167.619L336.273 187.547L338.492 90.8817L267.658 61.3681ZM421.132 67.2704L356.201 94.9432V199.353L421.133 169.839V67.2704H421.132ZM84.4814 179.543L29.5141 203.154L80.4204 224.924L139.449 203.154L84.4814 179.543ZM1.84181 209.057L0 315.308L80.4204 350.725V240.413L1.84181 209.057ZM167.122 209.057L94.4458 236.729V340.761L167.122 311.247V209.057ZM261.567 175.623L206.6 199.234L257.506 221.004L316.534 199.234L261.567 175.623ZM178.927 205.138L177.085 311.389L257.505 346.806V236.505L178.927 205.138ZM344.206 205.138L271.531 232.81V336.842L344.206 307.328V205.138ZM517.36 30L462.394 53.6113L513.3 75.3808L572.328 53.6113L517.36 30ZM434.72 59.5141L432.879 165.765L513.299 201.182V90.8817L434.72 59.5141ZM600 59.5141L527.324 87.1865V191.218L600 161.704V59.5141Z" fill="black" fill-opacity="0.12"/>
<path d="M208.055 301.045L153.088 324.656L203.994 346.426L263.022 324.656L208.055 301.045ZM125.415 330.559L123.573 436.81L203.993 472.227V361.915L125.415 330.559ZM290.694 330.559L218.018 358.231V462.263L290.694 432.749V330.559ZM377.395 0L322.05 23.6119L373.334 45.3814L432.362 23.6119L377.395 0ZM300.658 31.3681V137.619L369.273 157.547L371.492 60.8817L300.658 31.3681ZM454.132 37.2704L389.201 64.9432V169.353L454.133 139.839V37.2704H454.132ZM117.481 149.543L62.5141 173.154L113.42 194.924L172.449 173.154L117.481 149.543ZM34.8418 179.057L33 285.308L113.42 320.725V210.413L34.8418 179.057ZM200.122 179.057L127.446 206.729V310.761L200.122 281.247V179.057ZM294.567 145.623L239.6 169.234L290.506 191.004L349.534 169.234L294.567 145.623ZM211.927 175.138L210.085 281.389L290.505 316.806V206.505L211.927 175.138ZM377.206 175.138L304.531 202.81V306.842L377.206 277.328V175.138ZM550.36 0L495.394 23.6113L546.3 45.3808L605.328 23.6113L550.36 0ZM467.72 29.5141L465.879 135.765L546.299 171.182V60.8817L467.72 29.5141ZM633 29.5141L560.324 57.1865V161.218L633 131.704V29.5141Z" fill="#A93653"/>
</svg>
