<svg width="633" height="342" viewBox="0 0 633 342" fill="none" xmlns="http://www.w3.org/2000/svg">
<path fill-rule="evenodd" clip-rule="evenodd" d="M0 341.596L41.6601 130.7H137.991C179.648 133.305 200.478 154.132 200.478 190.586C200.478 253.073 151.01 289.524 106.746 286.919H59.8856L49.4706 341.596H0ZM70.2977 247.867L83.3172 169.756H117.164C135.389 169.756 148.406 177.566 148.406 193.187C145.804 237.452 124.974 245.262 101.543 247.867H70.3007H70.2977ZM190.8 286.919L232.457 76.0264H281.927L271.512 130.7H318.375C360.035 133.305 375.657 154.132 370.451 180.171L352.225 286.919H300.153L318.378 190.586C320.98 177.566 320.98 169.756 302.757 169.756H263.702L240.27 286.919H190.8ZM348.89 341.596L390.547 130.7H486.881C528.541 133.305 549.371 154.132 549.371 190.586C549.371 253.073 499.9 289.524 455.639 286.919H408.773L398.358 341.596H348.89ZM419.185 247.867L432.204 169.756H466.054C484.279 169.756 497.296 177.566 497.296 193.187C494.694 237.452 473.864 245.262 450.433 247.867H419.188H419.185Z" fill="black" fill-opacity="0.12"/>
<path fill-rule="evenodd" clip-rule="evenodd" d="M83.6289 265.57L125.289 54.6737H221.62C263.277 57.2782 284.107 78.1052 284.107 114.559C284.107 177.046 234.639 213.498 190.375 210.893H143.515L133.1 265.57H83.6289ZM153.927 171.84L166.946 93.7292H200.793C219.018 93.7292 232.035 101.54 232.035 117.161C229.433 161.425 208.603 169.236 185.172 171.84H153.93H153.927ZM274.428 210.893L316.086 0H365.556L355.141 54.6737H402.004C443.664 57.2782 459.285 78.1052 454.079 104.144L435.854 210.893H383.782L402.007 114.559C404.609 101.54 404.609 93.7292 386.386 93.7292H347.331L323.899 210.893H274.428ZM432.519 265.57L474.176 54.6737H570.51C612.17 57.2782 633 78.1052 633 114.559C633 177.046 583.529 213.498 539.268 210.893H492.401L481.986 265.57H432.519ZM502.814 171.84L515.833 93.7292H549.683C567.908 93.7292 580.925 101.54 580.925 117.161C578.323 161.425 557.493 169.236 534.062 171.84H502.816H502.814Z" fill="#A93653"/>
</svg>
