<svg width="244" height="111" viewBox="0 0 244 111" fill="none" xmlns="http://www.w3.org/2000/svg">
<path d="M25.3207 110.319C13.8904 106.636 8.04281 98.1993 7.77787 85.0083V72.8321C7.77787 64.9776 5.18525 61.0504 0 61.0504V49.3251C5.18525 49.3251 7.77787 45.3415 7.77787 37.3743V25.0853C8.08066 12.0447 13.9283 3.68294 25.3207 0L28.3864 9.13219C24.6015 10.9361 22.5388 15.6149 22.1982 23.1687L22.1414 37.2616C22.1414 45.7173 19.1324 51.6739 13.1145 55.1314C19.1324 58.6264 22.1414 64.6582 22.1414 73.2267C22.1414 81.7951 22.1792 86.6995 22.2549 87.9396C22.6713 95.0049 24.6962 99.4019 28.3296 101.131L25.3207 110.319Z" fill="#9A2542"/>
<path d="M82.5382 21.6279H96.4475V68.98C96.4475 75.6193 94.5866 80.9433 90.8649 84.9519C87.1431 88.9606 82.3489 90.9649 76.4824 90.9649C70.1743 90.9649 65.2698 89.1015 61.7688 85.3747C58.2678 81.6479 56.5173 76.4649 56.5173 69.8256H70.474C70.474 76.277 72.4768 79.5027 76.4824 79.5027C80.5196 79.5027 82.5382 75.7759 82.5382 68.3223V21.6279Z" fill="#9A2542"/>
<path d="M131.032 90.0254C130.653 89.2424 130.275 87.9271 129.896 86.0794C127.499 89.3364 124.25 90.9649 120.15 90.9649C115.861 90.9649 112.297 89.5556 109.458 86.737C106.651 83.9185 105.247 80.27 105.247 75.7916C105.247 70.4676 106.95 66.3493 110.357 63.4368C113.795 60.5243 118.731 59.0367 125.165 58.974H129.234V54.8871C129.234 52.6009 128.84 50.9881 128.051 50.0486C127.263 49.109 126.111 48.6393 124.597 48.6393C121.254 48.6393 119.582 50.5809 119.582 54.4643H106.194C106.194 49.7667 107.96 45.899 111.492 42.8612C115.056 39.7921 119.551 38.2575 124.976 38.2575C130.59 38.2575 134.927 39.7138 137.986 42.6263C141.077 45.5075 142.623 49.6414 142.623 55.028V78.939C142.686 83.3234 143.317 86.7527 144.515 89.2268V90.0254H131.032ZM123.131 80.5362C124.613 80.5362 125.875 80.2387 126.916 79.6436C127.956 79.0486 128.729 78.3439 129.234 77.5297V66.96H126.017C123.746 66.96 121.948 67.6803 120.623 69.1209C119.33 70.5615 118.684 72.4876 118.684 74.899C118.684 78.6571 120.166 80.5362 123.131 80.5362Z" fill="#9A2542"/>
<path d="M168.36 71.2349L174.841 39.197H188.798L174.747 90.0254H161.973L147.874 39.197H161.878L168.36 71.2349Z" fill="#9A2542"/>
<path d="M215.614 101.131C217.733 100.153 219.304 98.3308 220.326 95.6625C221.348 93.0319 221.859 89.1798 221.859 84.1064V73.0575C221.859 64.4515 224.943 58.4949 231.113 55.1878C224.943 51.843 221.859 45.8677 221.859 37.2616C221.859 28.6555 221.84 23.9579 221.802 23.1687C221.461 15.5773 219.38 10.8985 215.557 9.13219L218.623 0C224.451 1.87905 228.804 4.92312 231.68 9.13219C234.595 13.3413 236.09 18.8657 236.165 25.7054V37.4307C236.165 45.3603 238.777 49.3251 244 49.3251V61.0504C238.777 61.0504 236.165 65.0152 236.165 72.9448V85.1774C235.863 98.2556 230.015 106.636 218.623 110.319L215.614 101.131Z" fill="#9A2542"/>
</svg>
