<svg width="633" height="456" viewBox="0 0 633 456" fill="none" xmlns="http://www.w3.org/2000/svg">
<path d="M0.0035535 377.648L69.6548 335.495C83.0944 359.32 95.3181 379.479 124.64 379.479C152.746 379.479 170.47 368.486 170.47 325.721V34.8923H256.003V326.93C256.003 415.521 204.072 455.847 128.306 455.847C59.8809 455.847 20.163 420.41 0 377.641L0.0035535 377.648ZM302.462 368.482L372.106 328.16C390.442 358.1 414.27 380.095 456.424 380.095C491.868 380.095 514.467 362.374 514.467 337.934C514.467 308.609 491.249 298.22 452.147 281.118L430.768 271.945C369.056 245.681 328.122 212.686 328.122 143.035C328.122 78.8804 376.999 30 453.373 30C507.75 30 546.853 48.9434 574.955 98.4317L508.355 141.204C493.689 114.933 477.81 104.547 453.37 104.547C428.318 104.547 412.432 120.433 412.432 141.204C412.432 166.863 428.318 177.256 464.975 193.142L486.357 202.304C559.066 233.468 600 265.236 600 336.714C600 413.704 539.515 455.858 458.255 455.858C378.83 455.858 327.507 417.978 302.459 368.486" fill="black" fill-opacity="0.12"/>
<path d="M33.0036 347.648L102.655 305.495C116.094 329.32 128.318 349.479 157.64 349.479C185.746 349.479 203.47 338.486 203.47 295.721V4.8923H289.003V296.93C289.003 385.521 237.072 425.847 161.306 425.847C92.8809 425.847 53.163 390.41 33 347.641L33.0036 347.648ZM335.462 338.482L405.106 298.16C423.442 328.1 447.27 350.095 489.424 350.095C524.868 350.095 547.467 332.374 547.467 307.934C547.467 278.609 524.249 268.22 485.147 251.118L463.768 241.945C402.056 215.681 361.122 182.686 361.122 113.035C361.122 48.8804 409.999 0 486.373 0C540.75 0 579.853 18.9434 607.955 68.4317L541.355 111.204C526.689 84.9326 510.81 74.5471 486.37 74.5471C461.318 74.5471 445.432 90.4329 445.432 111.204C445.432 136.863 461.318 147.256 497.975 163.142L519.357 172.304C592.066 203.468 633 235.236 633 306.714C633 383.704 572.515 425.858 491.255 425.858C411.83 425.858 360.507 387.978 335.459 338.486" fill="#A93653"/>
</svg>
