<svg width="678" height="667" viewBox="0 0 678 667" fill="none" xmlns="http://www.w3.org/2000/svg">
<path d="M624.1 514.033C587.239 513.114 558.67 516.798 534.71 526.927C527.797 529.688 516.737 529.691 515.816 538.441C519.502 542.125 519.963 548.112 523.189 553.175C528.724 562.383 538.394 574.818 547.149 581.268C556.824 588.634 566.504 596 576.637 602.448C594.609 613.5 614.886 619.945 632.395 630.998C642.536 637.44 652.666 645.735 662.804 652.641C667.873 656.32 671.096 662.312 677.551 664.612V663.233C674.322 659.085 673.401 653.101 670.177 648.496C665.574 643.89 660.961 639.746 656.353 635.14C642.991 617.185 626.404 601.526 608.434 588.634C593.69 578.502 561.432 564.689 555.444 547.649C555.444 547.649 554.981 547.191 554.523 546.731C564.658 545.809 576.637 542.125 586.317 539.362C601.983 535.215 616.266 536.138 632.395 531.993C639.765 530.151 647.139 527.849 654.509 525.546V521.404C646.22 513.114 640.229 502.064 631.473 494.235C607.974 473.969 582.167 454.171 555.444 437.594C541.159 428.383 522.726 422.396 507.521 414.57C501.996 411.804 492.777 410.425 489.554 405.82C481.256 395.691 476.648 382.338 470.66 370.364C457.301 345.034 444.395 316.947 432.875 290.241C424.585 272.28 419.516 254.319 409.378 237.745C361.918 159.462 310.31 112.032 231.058 65.5208C214.008 55.8522 193.734 51.7073 172.078 46.6441C160.562 46.1809 149.039 45.2625 137.521 44.7993C130.148 41.5756 122.775 32.828 116.323 28.6832C90.0637 12.1039 22.3246 -23.81 2.97244 23.6199C-9.46991 53.5495 21.4056 83.0185 31.9993 98.2188C39.8387 108.809 49.9716 120.78 55.5015 132.754C58.7273 140.578 59.6464 148.872 62.8722 157.159C70.248 177.415 77.1552 199.984 86.8352 218.866C91.9043 228.535 97.4316 238.664 103.883 247.414C107.57 252.477 114.019 254.783 115.404 263.07C108.955 272.28 108.491 286.096 104.802 297.607C88.215 349.642 94.6693 414.109 118.166 452.329C125.537 463.837 143.048 489.172 166.548 479.498C187.285 471.211 182.677 444.963 188.662 421.939C190.05 416.407 189.128 412.728 191.891 409.044V409.967C198.342 422.857 204.791 435.294 210.782 448.186C225.068 470.747 249.947 494.235 270.682 509.893C281.744 518.177 290.497 532.454 304.322 537.52V536.136H303.398C300.633 531.991 296.486 530.151 292.802 526.925C284.509 518.641 275.29 508.509 268.841 499.298C249.492 473.508 232.438 444.96 217.234 415.488C209.863 401.217 203.409 385.559 197.421 371.285C194.653 365.753 194.653 357.469 190.047 354.708C183.135 364.837 172.999 373.588 167.93 386.019C159.18 405.82 158.256 430.226 155.03 455.55C153.187 456.016 154.106 455.55 153.184 456.476C138.443 452.787 133.374 437.594 127.841 424.699C114.016 392.006 111.712 339.511 123.696 301.752C126.922 292.081 140.747 261.691 135.217 252.48C132.452 243.73 123.233 238.664 118.166 231.758C112.178 223.008 105.724 211.961 101.579 202.287C90.5192 176.499 84.9893 147.949 73.0104 122.161C67.4804 110.187 57.8083 97.7583 49.9716 86.7054C41.2185 74.2736 31.5411 65.5208 24.6287 50.7863C22.3272 45.723 19.0988 37.4334 22.7854 31.9069C23.7071 28.2227 25.5477 26.8437 29.237 25.9226C35.2278 20.8541 52.2784 27.3016 58.2639 30.0648C75.3145 36.9676 89.5975 43.4203 103.883 53.089C110.332 57.6943 117.245 66.4445 125.537 68.7472H135.214C149.961 71.9683 166.545 69.6683 180.37 73.8104C204.794 81.6369 226.908 93.1503 246.724 105.585C307.087 143.804 356.846 198.142 390.486 263.07C396.016 273.657 398.318 283.333 403.387 294.381C413.067 316.947 425.046 339.971 434.718 362.074C444.395 383.714 453.609 405.82 467.434 423.781C474.347 433.447 501.991 438.515 514.433 443.581C523.65 447.723 537.936 451.41 546.228 456.473C561.893 466.139 577.559 477.198 592.305 487.785C599.679 493.311 622.715 504.824 624.1 514.033Z" fill="#A93653"/>
<path d="M154.102 113.869C146.271 113.869 140.743 114.795 135.213 116.174V117.095H136.135C139.824 124.464 146.271 129.53 150.876 135.974C154.566 143.34 157.789 150.712 161.478 158.08C161.936 157.617 162.397 157.159 162.397 157.159C168.851 152.551 172.074 145.185 172.074 134.132C169.309 130.911 168.849 127.687 166.544 124.464C163.782 119.856 157.789 117.556 154.102 113.869Z" fill="#A93653"/>
</svg>
