<svg width="60" height="59" viewBox="0 0 60 59" fill="none" xmlns="http://www.w3.org/2000/svg">
<g clip-path="url(#clip0)">
<path d="M29.884 0C13.3816 0 0 13.3793 0 29.884C0 43.0877 8.56266 54.2895 20.4366 58.241C21.93 58.5176 22.4784 57.5927 22.4784 56.8034C22.4784 56.0909 22.4505 53.7366 22.4379 51.2395C14.1239 53.0473 12.3696 47.7136 12.3696 47.7136C11.0102 44.2594 9.05156 43.3411 9.05156 43.3411C6.34031 41.4863 9.25594 41.5242 9.25594 41.5242C12.2569 41.7352 13.837 44.6039 13.837 44.6039C16.5023 49.1726 20.828 47.8516 22.5333 47.0883C22.8014 45.1566 23.576 43.8384 24.4305 43.0922C17.793 42.3363 10.8152 39.7739 10.8152 28.3233C10.8152 25.0608 11.9827 22.3948 13.8945 20.302C13.5841 19.5492 12.5613 16.5098 14.1839 12.3935C14.1839 12.3935 16.6934 11.5903 22.4041 15.4568C24.7877 14.7945 27.3443 14.4626 29.884 14.4513C32.4237 14.4626 34.9821 14.7945 37.3704 15.4568C43.0744 11.5903 45.5803 12.3935 45.5803 12.3935C47.2069 16.5098 46.1836 19.5492 45.8733 20.302C47.7893 22.3948 48.9487 25.0605 48.9487 28.3233C48.9487 39.8011 41.9578 42.3286 35.3034 43.0683C36.3752 43.9957 37.3303 45.8145 37.3303 48.6023C37.3303 52.6008 37.2956 55.819 37.2956 56.8034C37.2956 57.5986 37.8335 58.5305 39.3485 58.237C51.2159 54.281 59.7677 43.0833 59.7677 29.884C59.7677 13.3793 46.388 0 29.884 0Z" fill="#9A2542"/>
<path d="M11.1926 42.5707C11.127 42.7191 10.8931 42.7636 10.6805 42.6619C10.4637 42.5644 10.3418 42.3619 10.4121 42.2128C10.4766 42.06 10.7105 42.0174 10.9268 42.12C11.1441 42.2173 11.2679 42.4217 11.1926 42.5707ZM12.6626 43.8823C12.5201 44.0145 12.2414 43.9531 12.0523 43.7442C11.8568 43.5359 11.8203 43.2574 11.9649 43.1231C12.1118 42.9912 12.3821 43.0528 12.578 43.2614C12.7735 43.4721 12.8115 43.7489 12.6624 43.8825L12.6626 43.8823ZM13.6711 45.5604C13.4879 45.6877 13.1883 45.5684 13.0034 45.3026C12.8204 45.037 12.8204 44.7183 13.0074 44.5906C13.193 44.4628 13.4879 44.5777 13.6754 44.8413C13.8582 45.1116 13.8582 45.4303 13.6709 45.5606L13.6711 45.5604ZM15.3765 47.5041C15.2126 47.6845 14.8639 47.6363 14.6084 47.3897C14.3473 47.1488 14.2744 46.8068 14.4387 46.6261C14.6044 46.4452 14.9553 46.496 15.2126 46.7405C15.4721 46.9809 15.5513 47.3255 15.3767 47.5041H15.3765ZM17.5805 48.1603C17.5086 48.3942 17.1725 48.5006 16.834 48.4013C16.4961 48.2988 16.2748 48.0246 16.343 47.7881C16.4133 47.5526 16.7508 47.4417 17.0919 47.5481C17.4294 47.6501 17.6511 47.9222 17.5808 48.1603H17.5805ZM20.0893 48.4385C20.0977 48.6851 19.8106 48.8895 19.4553 48.8939C19.0979 48.9017 18.8089 48.7022 18.8051 48.4599C18.8051 48.2109 19.0857 48.0084 19.4429 48.0026C19.7982 47.9956 20.0893 48.1936 20.0893 48.4385ZM22.5535 48.3441C22.5962 48.5845 22.3491 48.8316 21.9964 48.8972C21.6495 48.9605 21.3284 48.8121 21.2841 48.5738C21.241 48.3272 21.4927 48.0804 21.8389 48.0164C22.1923 47.955 22.5085 48.0996 22.5535 48.3441Z" fill="#9A2542"/>
</g>
<defs>
<clipPath id="clip0">
<rect width="60" height="58.368" fill="white"/>
</clipPath>
</defs>
</svg>
