<svg width="60" height="58" viewBox="0 0 60 58" fill="none" xmlns="http://www.w3.org/2000/svg">
<g clip-path="url(#clip0)">
<path d="M0 6.66023C0 4.72969 0.675695 3.13703 2.02703 1.88224C3.37836 0.627394 5.13515 0 7.2973 0C9.42087 0 11.139 0.617722 12.4517 1.85328C13.8031 3.12741 14.4788 4.78761 14.4788 6.83398C14.4788 8.68726 13.8224 10.2316 12.5097 11.4672C11.1583 12.7413 9.38224 13.3784 7.18147 13.3784H7.12355C4.99998 13.3784 3.28187 12.7413 1.96911 11.4672C0.656351 10.1931 0 8.59071 0 6.66023ZM0.752896 57.3359V18.6486H13.61V57.3359H0.752896ZM20.7336 57.3359H33.5907V35.7336C33.5907 34.3822 33.7452 33.3397 34.0541 32.6062C34.5946 31.2934 35.4151 30.1834 36.5154 29.2761C37.6158 28.3687 38.9961 27.9151 40.6564 27.9151C44.9807 27.9151 47.1429 30.8301 47.1429 36.6602V57.3359H60V35.1544C60 29.4401 58.6487 25.1062 55.9459 22.1525C53.2432 19.1988 49.6718 17.722 45.2317 17.722C40.251 17.722 36.3707 19.8649 33.5907 24.1506V24.2664H33.5328L33.5907 24.1506V18.6486H20.7336C20.8108 19.8842 20.8494 23.7258 20.8494 30.1737C20.8494 36.6216 20.8108 45.6756 20.7336 57.3359Z" fill="#9A2542"/>
</g>
<defs>
<clipPath id="clip0">
<rect width="60" height="57.336" fill="white"/>
</clipPath>
</defs>
</svg>
