<svg width="60" height="49" viewBox="0 0 60 49" fill="none" xmlns="http://www.w3.org/2000/svg">
<path d="M18.8688 48.7531C41.5104 48.7531 53.8944 29.9947 53.8944 13.7275C53.8944 13.1947 53.8944 12.6643 53.8584 12.1363C56.2676 10.3937 58.3473 8.23603 60 5.76432C57.7533 6.75985 55.37 7.41271 52.9296 7.70112C55.4994 6.16268 57.4227 3.74297 58.3416 0.892321C55.9252 2.32621 53.2815 3.33675 50.5248 3.88032C48.6688 1.90676 46.2141 0.599924 43.5405 0.162032C40.8669 -0.27586 38.1236 0.179607 35.7349 1.45795C33.3463 2.7363 31.4456 4.76625 30.3269 7.23369C29.2082 9.70113 28.9339 12.4685 29.5464 15.1075C24.6522 14.8622 19.8643 13.5903 15.4935 11.3745C11.1228 9.15876 7.26681 6.04858 4.176 2.24592C2.60182 4.95591 2.11968 8.16399 2.82775 11.217C3.53582 14.27 5.38085 16.9383 7.9872 18.6787C6.02818 18.6207 4.11187 18.0922 2.4 17.1379C2.4 17.1883 2.4 17.2411 2.4 17.2939C2.40078 20.136 3.38463 22.8904 5.18468 25.0898C6.98473 27.2893 9.49015 28.7983 12.276 29.3611C10.4637 29.8554 8.56219 29.9276 6.7176 29.5723C7.50422 32.0183 9.03568 34.1573 11.0978 35.6901C13.1599 37.2229 15.6495 38.0729 18.2184 38.1211C13.8594 41.547 8.47454 43.4067 2.9304 43.4011C1.95097 43.3992 0.97249 43.3399 0 43.2235C5.62953 46.8362 12.1798 48.7524 18.8688 48.7435" fill="#9A2542"/>
</svg>
